<?xml version="1.0" standalone="no"?>
<!DOCTYPE svg PUBLIC "-//W3C//DTD SVG 20010904//EN"
 "http://www.w3.org/TR/2001/REC-SVG-20010904/DTD/svg10.dtd">
<svg version="1.0" xmlns="http://www.w3.org/2000/svg"
 width="1350.000000pt" height="627.000000pt" viewBox="0 0 1350.000000 627.000000"
 preserveAspectRatio="xMidYMid meet">

<g transform="translate(0.000000,627.000000) scale(0.100000,-0.100000)"
fill="#000000" stroke="none">
<path d="M11742 6158 c-17 -17 -17 -309 0 -326 9 -9 88 -12 294 -12 248 0 283
2 288 16 3 9 6 80 6 159 0 79 -3 150 -6 159 -5 14 -40 16 -288 16 -206 0 -285
-3 -294 -12z m68 -138 c0 -43 3 -50 19 -50 11 0 23 -4 26 -10 4 -6 -10 -10
-34 -10 l-41 0 0 60 c0 47 3 60 15 60 11 0 15 -12 15 -50z m451 33 c7 -54 3
-103 -8 -103 -8 0 -13 13 -13 34 0 19 -4 38 -10 41 -6 4 -10 -10 -10 -35 l0
-41 -37 3 c-37 3 -38 4 -41 46 -2 25 1 42 7 42 6 0 11 -16 11 -35 0 -24 5 -35
15 -35 10 0 15 11 15 35 0 31 3 35 25 35 14 0 25 5 25 10 0 11 20 14 21 3z
m-318 -34 c5 -9 7 -28 3 -43 -6 -24 -11 -27 -39 -24 -27 2 -33 8 -35 31 -2 16
-1 35 2 44 8 19 56 13 69 -8z m97 -27 c0 -26 -5 -53 -12 -60 -15 -15 -55 -16
-64 0 -5 8 0 9 14 6 12 -4 24 -2 27 2 3 5 -5 10 -17 12 -17 2 -24 11 -26 31
-5 45 4 57 43 57 l35 0 0 -48z m83 27 c5 -9 7 -28 3 -43 -6 -24 -11 -27 -39
-24 -27 2 -33 8 -35 31 -2 16 -1 35 2 44 8 19 56 13 69 -8z"/>
<path d="M11890 5995 c0 -20 4 -26 18 -23 9 2 17 12 17 23 0 11 -8 21 -17 23
-14 3 -18 -3 -18 -23z"/>
<path d="M11980 5995 c0 -16 6 -25 15 -25 9 0 15 9 15 25 0 16 -6 25 -15 25
-9 0 -15 -9 -15 -25z"/>
<path d="M12070 5995 c0 -20 4 -26 18 -23 9 2 17 12 17 23 0 11 -8 21 -17 23
-14 3 -18 -3 -18 -23z"/>
<path d="M1430 6101 c0 -14 38 -38 71 -45 40 -7 103 -56 130 -100 l19 -31 0
92 0 93 -110 -1 c-60 0 -110 -4 -110 -8z"/>
<path d="M9967 6042 c-25 -27 -24 -153 1 -175 17 -16 86 -17 794 -17 895 0
808 -11 808 107 0 55 -4 73 -18 86 -17 16 -86 17 -794 17 -738 0 -776 -1 -791
-18z m363 -77 l0 -55 -50 1 c-38 1 -50 5 -51 18 -1 15 -2 15 -6 0 -3 -12 -17
-17 -53 -18 -27 0 -52 4 -55 9 -4 7 -13 7 -25 0 -10 -5 -28 -10 -39 -10 -18 0
-21 6 -21 50 0 48 1 50 28 50 15 0 33 -5 39 -11 15 -15 126 -15 131 0 5 16 32
14 32 -3 0 -9 7 -12 20 -9 11 3 20 12 20 19 0 8 7 14 15 14 12 0 15 -13 15
-55z m220 35 c3 -5 32 -10 65 -12 l60 -3 3 -37 c2 -29 0 -38 -12 -38 -10 0
-17 10 -17 28 l-2 27 -4 -27 -4 -28 -132 2 c-73 0 -138 5 -144 11 -20 15 -15
30 7 24 17 -4 20 0 20 29 0 24 5 34 16 34 21 0 41 -22 47 -51 4 -23 4 -22 6 4
0 17 7 27 16 27 8 0 15 7 15 16 0 13 6 15 27 9 15 -3 30 -10 33 -15z m590 2
c0 -13 8 -18 26 -17 33 0 53 -28 38 -52 -9 -15 -28 -19 -98 -21 l-86 -3 -1 28
-2 28 -4 -27 c-2 -16 -11 -28 -19 -28 -8 0 -15 11 -15 28 l-2 27 -4 -28 c-4
-26 -7 -28 -46 -25 -34 2 -42 7 -48 28 l-7 25 -1 -28 c-1 -28 -1 -28 -68 -26
-85 2 -103 6 -103 26 0 10 6 14 20 10 17 -4 20 0 20 29 0 27 4 34 20 34 11 0
20 -4 20 -9 0 -6 59 -11 135 -13 99 -2 135 0 135 9 0 13 21 20 63 22 20 1 27
-4 27 -17z m177 -3 c9 -9 24 -9 60 0 33 9 49 9 51 2 2 -6 20 -11 39 -11 35 0
35 0 20 -24 -15 -22 -15 -25 0 -30 33 -13 -4 -27 -63 -24 -57 3 -59 4 -65 33
l-6 30 -4 -30 c-4 -26 -8 -29 -46 -32 -28 -2 -47 3 -57 13 -19 18 -21 55 -4
72 15 15 60 16 75 1z"/>
<path d="M10060 5960 c0 -11 5 -20 10 -20 6 0 10 9 10 20 0 11 -4 20 -10 20
-5 0 -10 -9 -10 -20z"/>
<path d="M11160 5950 c0 -5 5 -10 10 -10 6 0 10 5 10 10 0 6 -4 10 -10 10 -5
0 -10 -4 -10 -10z"/>
<path d="M11270 5966 c0 -14 5 -26 10 -26 6 0 10 9 10 19 0 11 -4 23 -10 26
-6 4 -10 -5 -10 -19z"/>
<path d="M11430 5959 c0 -5 5 -7 10 -4 6 3 10 8 10 11 0 2 -4 4 -10 4 -5 0
-10 -5 -10 -11z"/>
<path d="M6763 5980 c0 -36 2 -52 4 -36 4 25 8 28 39 24 34 -4 34 -4 32 37 -1
36 -2 37 -5 8 -4 -29 -8 -33 -33 -33 -25 0 -29 4 -33 33 -2 17 -4 3 -4 -33z"/>
<path d="M7522 6028 c-7 -7 -12 -16 -12 -22 0 -5 6 -1 14 10 13 17 17 18 38 5
21 -13 22 -13 9 2 -16 20 -32 22 -49 5z"/>
<path d="M9112 5983 c3 -54 5 -58 28 -60 22 -1 22 -1 3 4 -16 3 -23 12 -23 28
0 17 7 25 23 28 l22 4 -22 2 c-16 1 -23 7 -23 20 0 12 8 21 23 24 18 4 18 4
-6 6 -28 1 -28 1 -25 -56z"/>
<path d="M7642 6014 c-7 -8 -8 -14 -2 -14 5 0 10 -15 10 -34 0 -19 3 -37 8
-39 7 -5 8 91 0 98 -1 2 -9 -3 -16 -11z"/>
<path d="M8739 6019 c-2 -32 3 -84 9 -91 4 -4 6 16 5 43 -1 46 -12 82 -14 48z"/>
<path d="M9757 6010 c-3 -11 -1 -20 4 -20 5 0 9 9 9 20 0 11 -2 20 -4 20 -2 0
-6 -9 -9 -20z"/>
<path d="M6886 6002 c-3 -5 5 -8 17 -8 18 1 22 -5 22 -29 0 -25 -4 -30 -23
-29 -16 0 -20 -2 -12 -10 15 -15 44 5 48 33 6 35 -36 69 -52 43z"/>
<path d="M7002 5998 c9 -7 19 -26 21 -43 4 -28 4 -27 6 6 1 25 -4 39 -15 43
-25 10 -29 7 -12 -6z"/>
<path d="M7048 6003 c7 -3 16 -2 19 1 4 3 -2 6 -13 5 -11 0 -14 -3 -6 -6z"/>
<path d="M7130 6006 c0 -2 7 -7 16 -10 8 -3 12 -2 9 4 -6 10 -25 14 -25 6z"/>
<path d="M7696 5995 c4 -8 8 -15 10 -15 2 0 4 7 4 15 0 8 -4 15 -10 15 -5 0
-7 -7 -4 -15z"/>
<path d="M7742 5998 c-7 -7 -12 -21 -11 -32 1 -18 2 -17 8 4 10 37 44 33 52
-5 6 -28 7 -28 8 -4 1 26 -15 49 -34 49 -6 0 -16 -5 -23 -12z"/>
<path d="M7837 6003 c-3 -5 5 -8 18 -8 13 0 21 3 18 8 -2 4 -10 7 -18 7 -8 0
-16 -3 -18 -7z"/>
<path d="M8232 5980 c0 -19 2 -27 5 -17 2 9 2 25 0 35 -3 9 -5 1 -5 -18z"/>
<path d="M8342 5998 c-7 -7 -12 -21 -11 -32 1 -18 2 -17 8 4 10 38 46 34 46
-5 0 -25 -4 -30 -23 -29 -16 0 -20 -2 -12 -10 15 -15 44 5 48 33 6 40 -30 65
-56 39z"/>
<path d="M8450 6006 c0 -2 7 -7 16 -10 8 -3 12 -2 9 4 -6 10 -25 14 -25 6z"/>
<path d="M8508 6003 c6 -2 18 -2 25 0 6 3 1 5 -13 5 -14 0 -19 -2 -12 -5z"/>
<path d="M8570 5993 c-12 -15 -12 -16 0 -5 8 6 20 12 27 12 19 0 16 -28 -4
-33 -13 -3 -12 -5 5 -6 19 -1 23 3 20 21 -4 29 -31 34 -48 11z"/>
<path d="M9270 6006 c0 -2 7 -7 16 -10 8 -3 12 -2 9 4 -6 10 -25 14 -25 6z"/>
<path d="M9520 6006 c0 -2 7 -7 16 -10 8 -3 12 -2 9 4 -6 10 -25 14 -25 6z"/>
<path d="M9673 5965 c0 -27 2 -38 4 -22 2 15 2 37 0 50 -2 12 -4 0 -4 -28z"/>
<path d="M8420 5989 c0 -5 5 -7 10 -4 6 3 10 8 10 11 0 2 -4 4 -10 4 -5 0 -10
-5 -10 -11z"/>
<path d="M7073 5955 c0 -22 2 -30 4 -17 2 12 2 30 0 40 -3 9 -5 -1 -4 -23z"/>
<path d="M7543 5978 c17 -6 27 -17 28 -31 1 -20 2 -20 6 -3 6 21 -21 47 -46
45 -9 0 -4 -5 12 -11z"/>
<path d="M9382 5965 c0 -16 2 -22 5 -12 2 9 2 23 0 30 -3 6 -5 -1 -5 -18z"/>
<path d="M9632 5960 c0 -19 2 -27 5 -17 2 9 2 25 0 35 -3 9 -5 1 -5 -18z"/>
<path d="M6871 5964 c0 -11 3 -14 6 -6 3 7 2 16 -1 19 -3 4 -6 -2 -5 -13z"/>
<path d="M7100 5965 c0 -7 15 -9 35 -7 19 2 35 7 35 11 0 3 -16 6 -35 6 -19 0
-35 -5 -35 -10z"/>
<path d="M7835 5970 c3 -4 14 -10 25 -13 11 -3 18 -2 15 3 -3 4 -14 10 -25 13
-11 3 -18 2 -15 -3z"/>
<path d="M9240 5964 c0 -8 5 -12 10 -9 6 4 8 11 5 16 -9 14 -15 11 -15 -7z"/>
<path d="M9332 5955 c0 -16 2 -22 5 -12 2 9 2 23 0 30 -3 6 -5 -1 -5 -18z"/>
<path d="M9491 5964 c0 -11 3 -14 6 -6 3 7 2 16 -1 19 -3 4 -6 -2 -5 -13z"/>
<path d="M8422 5945 c0 -16 2 -22 5 -12 2 9 2 23 0 30 -3 6 -5 -1 -5 -18z"/>
<path d="M8652 5950 c0 -14 2 -19 5 -12 2 6 2 18 0 25 -3 6 -5 1 -5 -13z"/>
<path d="M9171 5954 c0 -11 3 -14 6 -6 3 7 2 16 -1 19 -3 4 -6 -2 -5 -13z"/>
<path d="M9278 5963 c7 -3 16 -2 19 1 4 3 -2 6 -13 5 -11 0 -14 -3 -6 -6z"/>
<path d="M9523 5963 c9 -2 23 -2 30 0 6 3 -1 5 -18 5 -16 0 -22 -2 -12 -5z"/>
<path d="M7522 5934 c9 -9 21 -15 27 -13 6 2 -2 10 -17 17 -25 11 -25 11 -10
-4z"/>
<path d="M7701 5934 c0 -11 3 -14 6 -6 3 7 2 16 -1 19 -3 4 -6 -2 -5 -13z"/>
<path d="M7829 5938 c15 -20 36 -23 46 -8 3 6 -1 7 -10 4 -8 -4 -23 0 -33 7
-15 13 -16 12 -3 -3z"/>
<path d="M9761 5934 c0 -11 3 -14 6 -6 3 7 2 16 -1 19 -3 4 -6 -2 -5 -13z"/>
<path d="M1332 5933 c-15 -3 -22 -10 -20 -21 3 -13 13 -16 41 -15 22 2 37 -2
37 -9 0 -6 2 -9 5 -6 3 3 1 17 -4 32 -10 26 -15 27 -59 19z"/>
<path d="M7748 5928 c5 -5 16 -8 23 -6 8 3 3 7 -10 11 -17 4 -21 3 -13 -5z"/>
<path d="M8520 5930 c0 -5 5 -10 11 -10 5 0 7 5 4 10 -3 6 -8 10 -11 10 -2 0
-4 -4 -4 -10z"/>
<path d="M1180 5798 l0 -128 124 0 124 0 32 31 c40 41 28 50 -62 44 -44 -2
-68 0 -68 7 0 7 -4 7 -12 1 -7 -5 -29 -9 -48 -9 -28 1 -36 5 -38 24 -2 12 0
22 5 23 4 0 23 2 41 3 18 2 35 -1 38 -6 4 -6 10 -5 15 3 7 11 10 9 15 -8 l6
-22 18 21 c14 18 21 20 32 10 8 -6 18 -9 22 -5 4 4 21 8 38 8 17 0 33 6 35 13
3 6 -2 12 -10 12 -8 0 -31 11 -51 25 -33 22 -36 23 -36 6 0 -22 -19 -31 -67
-31 -42 0 -93 29 -128 73 l-25 32 0 -127z"/>
<path d="M1250 5770 c0 -5 5 -10 11 -10 5 0 7 5 4 10 -3 6 -8 10 -11 10 -2 0
-4 -4 -4 -10z"/>
<path d="M5104 4895 c0 -49 1 -71 3 -48 2 23 2 64 0 90 -2 26 -3 8 -3 -42z"/>
<path d="M5650 4951 c0 -26 -3 -30 -27 -28 -20 2 -31 -5 -42 -25 -14 -25 -14
-31 -1 -55 13 -22 23 -28 53 -29 l37 -1 0 83 c0 49 -4 84 -10 84 -5 0 -10 -13
-10 -29z m0 -82 c0 -38 -1 -40 -27 -37 -47 5 -45 78 2 78 23 0 25 -4 25 -41z"/>
<path d="M4471 4888 c1 -61 3 -72 8 -43 5 36 9 41 41 46 l35 6 -37 2 c-33 1
-38 4 -38 26 0 23 4 25 40 25 22 0 40 5 40 10 0 6 -20 10 -45 10 l-45 0 1 -82z"/>
<path d="M5345 4960 c3 -5 8 -10 11 -10 2 0 4 5 4 10 0 6 -5 10 -11 10 -5 0
-7 -4 -4 -10z"/>
<path d="M6240 4946 c0 -8 -6 -17 -12 -19 -10 -4 -10 -6 0 -6 7 -1 12 -16 12
-40 0 -22 3 -46 6 -55 7 -17 34 -22 34 -6 0 6 -4 10 -10 10 -15 0 -12 87 3 93
10 4 10 6 0 6 -7 1 -13 8 -13 16 0 8 -4 15 -10 15 -5 0 -10 -6 -10 -14z"/>
<path d="M6551 4948 c0 -10 -6 -18 -12 -18 -8 0 -8 -4 -1 -13 6 -7 12 -33 14
-57 2 -33 8 -46 21 -48 9 -2 17 1 17 7 0 6 -7 11 -15 11 -19 0 -21 70 -3 88 8
8 9 12 1 12 -6 0 -14 8 -16 18 -4 16 -5 16 -6 0z"/>
<path d="M4596 4914 c-33 -33 -10 -104 33 -104 10 0 25 8 34 18 47 52 -18 135
-67 86z m64 -43 c0 -52 -51 -66 -64 -18 -8 31 -8 34 10 51 23 23 54 4 54 -33z"/>
<path d="M4712 4865 c2 -58 2 -59 5 -11 3 37 8 49 24 53 27 8 24 21 -6 19 -24
-1 -25 -4 -23 -61z"/>
<path d="M4780 4868 c0 -32 4 -58 10 -58 6 0 10 22 10 49 0 48 10 63 38 54 7
-3 12 -23 12 -54 0 -63 18 -64 22 -1 3 40 6 47 25 50 23 3 28 -6 36 -73 2 -18
5 -9 6 21 1 62 -16 83 -54 66 -13 -6 -27 -7 -30 -3 -3 5 -21 9 -40 8 l-35 -1
0 -58z"/>
<path d="M4984 4875 l1 -60 38 0 37 -1 -2 61 -1 60 -6 -50 c-5 -45 -8 -50 -31
-50 -23 0 -26 5 -31 50 l-6 50 1 -60z"/>
<path d="M5164 4914 c-19 -15 -19 -16 1 -9 37 12 55 9 55 -10 0 -9 -9 -15 -23
-15 -28 0 -47 -17 -47 -42 0 -20 0 -20 53 -23 l37 -2 0 43 c0 65 -35 91 -76
58z m56 -59 c0 -19 -24 -29 -46 -21 -13 5 -14 9 -4 21 16 20 50 19 50 0z"/>
<path d="M5270 4869 c0 -33 4 -59 10 -59 6 0 10 23 10 50 0 38 4 50 15 50 8 0
15 4 15 9 0 5 -11 9 -25 9 -24 0 -25 -3 -25 -59z"/>
<path d="M5341 4870 c-1 -37 2 -60 8 -60 7 0 11 25 11 60 0 33 -4 60 -8 60 -5
0 -10 -27 -11 -60z"/>
<path d="M5410 4910 c-25 -25 -25 -51 -1 -81 16 -20 23 -22 47 -14 24 9 30 17
32 50 5 60 -38 85 -78 45z m54 -6 c33 -33 4 -94 -35 -74 -33 18 -20 83 18 90
1 0 9 -7 17 -16z"/>
<path d="M5716 4917 c-13 -9 -17 -23 -14 -52 2 -33 8 -41 31 -49 20 -7 30 -6
40 3 10 11 8 12 -9 7 -14 -4 -28 -1 -38 9 -22 23 -11 35 30 35 38 0 45 18 18
44 -19 19 -35 20 -58 3z m54 -23 c0 -9 -11 -14 -30 -14 -34 0 -36 3 -15 24 18
17 45 11 45 -10z"/>
<path d="M5886 4914 c-30 -29 -11 -104 25 -104 17 0 49 20 49 31 0 5 -11 2
-24 -6 -22 -14 -25 -14 -40 0 -9 9 -16 25 -16 35 0 10 7 26 16 35 15 14 18 14
40 0 25 -16 33 -8 12 13 -17 17 -44 15 -62 -4z"/>
<path d="M6000 4910 c-11 -11 -20 -29 -20 -40 0 -21 33 -60 51 -60 31 0 49 22
49 60 0 29 -5 42 -19 50 -28 14 -38 13 -61 -10z m54 -6 c33 -33 4 -94 -35 -74
-33 18 -20 83 18 90 1 0 9 -7 17 -16z"/>
<path d="M6110 4868 c0 -69 18 -78 22 -10 3 40 6 47 26 50 20 3 22 0 22 -47 0
-28 5 -51 10 -51 15 0 12 96 -2 107 -7 6 -28 10 -45 10 l-33 0 0 -59z"/>
<path d="M6320 4920 c-8 -5 -11 -12 -7 -16 3 -4 13 -1 21 5 17 14 36 7 36 -13
0 -8 -14 -16 -30 -20 -60 -12 -46 -68 16 -63 33 2 34 3 34 48 0 61 -28 86 -70
59z m50 -70 c0 -15 -7 -20 -25 -20 -41 0 -30 37 13 39 6 1 12 -8 12 -19z"/>
<path d="M6437 4912 c-33 -36 -10 -102 35 -102 17 0 44 27 36 35 -3 3 -11 -1
-18 -10 -19 -22 -50 -1 -50 34 0 40 20 55 48 35 23 -16 30 -6 10 14 -17 17
-42 15 -61 -6z"/>
<path d="M6626 4914 c-9 -8 -16 -31 -16 -50 0 -27 5 -37 26 -46 50 -23 92 37
60 86 -19 29 -47 33 -70 10z m64 -44 c0 -38 -31 -57 -54 -34 -33 33 -4 94 35
74 12 -7 19 -21 19 -40z"/>
<path d="M4460 4460 l0 -60 38 2 c36 1 36 1 5 5 -27 4 -33 9 -33 28 0 18 6 25
28 28 l27 4 -27 2 c-21 1 -28 6 -28 20 0 15 8 21 33 24 31 4 31 4 -5 5 l-38 2
0 -60z"/>
<path d="M4780 4509 c0 -5 5 -7 10 -4 6 3 10 8 10 11 0 2 -4 4 -10 4 -5 0 -10
-5 -10 -11z"/>
<path d="M4811 4465 c-1 -58 0 -61 24 -63 18 -1 29 5 36 22 15 31 -5 70 -31
63 -13 -3 -20 1 -23 17 -2 11 -5 -6 -6 -39z m53 -8 c8 -12 7 -21 -6 -33 -20
-20 -38 -11 -38 20 0 39 23 46 44 13z"/>
<path d="M5610 4460 c0 -35 3 -60 7 -56 8 8 7 106 -1 114 -4 3 -6 -23 -6 -58z"/>
<path d="M6043 4460 c0 -36 2 -50 4 -32 2 17 2 47 0 65 -2 17 -4 3 -4 -33z"/>
<path d="M6619 4503 c0 -10 -1 -37 -3 -60 -1 -24 1 -43 6 -43 4 0 8 27 8 60 0
33 -2 60 -5 60 -3 0 -5 -8 -6 -17z"/>
<path d="M7618 4498 c-8 -24 8 -92 22 -96 12 -4 13 -2 3 9 -15 15 -17 66 -4
71 5 2 3 8 -4 15 -10 9 -15 9 -17 1z"/>
<path d="M7842 4493 c-7 -7 -8 -13 -3 -13 5 0 11 -17 13 -37 2 -20 9 -38 16
-39 7 -1 8 0 2 3 -12 6 -13 70 -1 75 5 2 4 8 -3 14 -8 8 -15 7 -24 -3z"/>
<path d="M8288 4498 c-8 -24 8 -92 22 -96 12 -4 13 -2 3 9 -15 15 -17 66 -4
71 5 2 3 8 -4 15 -10 9 -15 9 -17 1z"/>
<path d="M4557 4483 c-15 -14 -6 -34 19 -43 14 -6 22 -14 19 -20 -8 -13 -32
-13 -38 0 -3 6 -4 5 -3 -2 4 -19 50 -16 54 3 1 9 -8 20 -23 27 -34 16 -33 36
3 28 20 -5 23 -4 12 4 -17 11 -34 13 -43 3z"/>
<path d="M4641 4476 c-26 -31 11 -98 39 -70 8 8 4 10 -12 10 -18 -1 -24 5 -26
27 -4 31 24 49 40 26 8 -12 9 -11 5 1 -5 21 -31 24 -46 6z"/>
<path d="M4722 4441 c1 -41 2 -42 5 -11 3 19 9 40 14 46 5 7 3 11 -6 11 -11 0
-15 -12 -13 -46z"/>
<path d="M4773 4445 c0 -27 2 -38 4 -22 2 15 2 37 0 50 -2 12 -4 0 -4 -28z"/>
<path d="M4914 4482 c-30 -20 -19 -82 15 -82 11 0 22 4 25 8 3 5 -4 8 -16 8
-12 -1 -23 5 -25 12 -3 7 5 12 22 12 22 0 26 4 23 22 -3 24 -25 34 -44 20z
m34 -20 c2 -7 -6 -12 -17 -12 -21 0 -27 11 -14 24 9 9 26 2 31 -12z"/>
<path d="M4981 4445 l1 -50 8 40 c5 22 4 44 -1 50 -5 5 -9 -11 -8 -40z"/>
<path d="M5024 4474 c9 -8 17 -30 17 -47 1 -25 3 -27 6 -8 7 34 -5 71 -23 71
-14 0 -14 -2 0 -16z"/>
<path d="M5080 4476 c-15 -19 -9 -56 12 -69 34 -22 66 41 36 71 -16 16 -33 15
-48 -2z m45 -31 c0 -23 -4 -30 -20 -30 -21 0 -31 25 -21 51 11 28 41 12 41
-21z"/>
<path d="M5171 4481 c-12 -8 -12 -12 -2 -25 8 -9 20 -16 27 -16 8 0 14 -7 14
-15 0 -18 -21 -20 -38 -3 -9 9 -12 9 -12 1 0 -14 36 -27 50 -18 18 11 10 35
-16 45 -28 11 -23 35 7 27 11 -3 17 -1 13 4 -7 11 -25 11 -43 0z"/>
<path d="M5281 4489 c-1 -4 6 -25 13 -48 13 -36 13 -42 0 -56 -9 -9 -11 -15
-4 -15 12 0 35 50 44 96 6 26 5 25 -8 -6 l-13 -35 -16 35 c-8 19 -16 32 -16
29z"/>
<path d="M5410 4476 c-25 -31 13 -97 40 -70 8 8 4 10 -11 10 -12 -1 -24 5 -26
12 -3 8 6 12 26 12 34 0 36 2 21 31 -13 23 -33 25 -50 5z m44 -11 c4 -11 -1
-15 -19 -15 -24 0 -32 10 -18 23 11 12 31 8 37 -8z"/>
<path d="M5489 4471 c0 -9 -2 -28 -3 -43 -1 -16 2 -28 6 -28 4 0 8 17 10 38 4
52 31 50 39 -3 l7 -40 -2 45 c-1 42 -3 45 -28 46 -19 1 -28 -4 -29 -15z"/>
<path d="M5653 4479 c9 -5 17 -21 17 -34 0 -13 -8 -29 -17 -34 -20 -12 -13
-14 11 -5 30 12 14 85 -18 84 -6 0 -3 -5 7 -11z"/>
<path d="M5702 4440 c1 -40 2 -41 5 -11 3 19 12 41 21 47 15 12 15 13 -5 11
-21 -1 -23 -6 -21 -47z"/>
<path d="M5759 4469 c-8 -16 -8 -28 0 -45 11 -25 45 -32 57 -13 4 7 0 9 -13 5
-12 -4 -25 -1 -33 9 -11 13 -8 15 19 15 32 0 41 16 19 38 -18 18 -36 15 -49
-9z m49 -7 c2 -7 -7 -12 -23 -12 -24 0 -26 2 -15 15 14 17 31 16 38 -3z"/>
<path d="M5846 4445 c9 -25 17 -45 19 -45 2 0 10 21 19 47 9 25 13 43 8 39 -4
-4 -12 -22 -18 -39 l-11 -32 -7 32 c-4 18 -11 35 -16 38 -5 3 -2 -15 6 -40z"/>
<path d="M5919 4469 c-8 -16 -8 -28 0 -45 11 -25 45 -32 57 -13 4 7 0 9 -13 5
-12 -4 -25 -1 -33 9 -11 13 -8 15 19 15 24 0 31 4 31 19 0 17 -18 31 -40 31
-5 0 -14 -10 -21 -21z m49 -7 c2 -7 -6 -12 -17 -12 -21 0 -27 11 -14 24 9 9
26 2 31 -12z"/>
<path d="M6081 4468 c-11 -31 -3 -56 22 -64 35 -11 63 46 35 74 -19 19 -48 14
-57 -10z m53 -11 c8 -12 7 -21 -6 -33 -20 -20 -38 -11 -38 20 0 39 23 46 44
13z"/>
<path d="M6177 4483 c-15 -14 -6 -33 18 -39 26 -6 32 -18 15 -29 -6 -4 -18 -1
-27 7 -14 11 -15 11 -11 -2 7 -21 52 -19 56 2 2 12 -6 21 -23 28 -30 11 -24
34 7 24 14 -4 18 -2 14 5 -8 12 -39 15 -49 4z"/>
<path d="M6297 4483 c-4 -3 -6 -31 -6 -62 1 -31 4 -46 6 -34 3 14 9 20 19 16
20 -7 44 15 44 41 0 23 -17 46 -34 46 -5 0 -2 -6 8 -13 24 -18 18 -62 -9 -62
-17 0 -20 6 -19 38 1 39 1 41 -9 30z"/>
<path d="M6390 4476 c-15 -19 -9 -56 12 -69 34 -22 66 41 36 71 -16 16 -33 15
-48 -2z m45 -31 c0 -23 -4 -30 -20 -30 -21 0 -31 25 -21 51 11 28 41 12 41
-21z"/>
<path d="M6471 4445 l1 -50 8 40 c5 22 4 44 -1 50 -5 5 -9 -11 -8 -40z"/>
<path d="M6514 4475 c8 -8 17 -15 20 -15 3 0 3 7 0 15 -4 8 -13 15 -21 15 -12
0 -12 -2 1 -15z"/>
<path d="M6572 4478 c-24 -24 -8 -79 23 -78 5 0 2 5 -7 11 -10 5 -18 21 -18
34 0 13 8 29 18 34 9 6 12 11 7 11 -6 0 -16 -5 -23 -12z"/>
<path d="M6653 4441 c0 -37 0 -39 4 -11 2 19 11 40 20 47 13 10 13 12 -4 10
-16 -1 -20 -9 -20 -46z"/>
<path d="M6709 4469 c-8 -16 -8 -28 0 -45 10 -24 44 -33 55 -15 4 5 -2 7 -12
4 -10 -2 -24 3 -31 11 -12 14 -9 16 18 16 32 0 41 16 19 38 -18 18 -36 15 -49
-9z m49 -7 c2 -7 -6 -12 -17 -12 -21 0 -27 11 -14 24 9 9 26 2 31 -12z"/>
<path d="M6791 4441 l2 -46 6 40 c4 26 11 40 21 40 10 0 17 -14 21 -40 l5 -40
5 40 c3 27 9 41 21 43 13 3 18 -6 21 -40 l4 -43 -1 45 -1 45 -52 1 -53 1 1
-46z"/>
<path d="M6940 4476 c-15 -19 -9 -56 12 -69 34 -22 66 41 36 71 -16 16 -33 15
-48 -2z m45 -31 c0 -23 -4 -30 -20 -30 -21 0 -31 25 -21 51 11 28 41 12 41
-21z"/>
<path d="M7024 4475 c-8 -20 4 -35 27 -35 10 0 19 -7 19 -15 0 -18 -21 -20
-39 -2 -11 10 -13 9 -9 -3 7 -21 52 -19 56 2 2 12 -6 21 -23 28 -30 11 -24 34
7 24 14 -4 18 -2 14 5 -10 16 -46 14 -52 -4z"/>
<path d="M7150 4476 c-25 -31 13 -97 40 -70 8 8 4 10 -11 10 -12 -1 -24 5 -26
12 -3 8 6 12 26 12 32 0 41 16 19 38 -16 16 -33 15 -48 -2z m44 -11 c4 -11 -1
-15 -19 -15 -18 0 -23 4 -19 15 4 8 12 15 19 15 7 0 15 -7 19 -15z"/>
<path d="M7231 4441 l2 -46 6 40 c4 26 11 40 21 40 10 0 17 -14 21 -40 l7 -40
-2 45 c-1 42 -3 45 -28 46 -27 1 -28 -1 -27 -45z"/>
<path d="M7359 4469 c-12 -23 1 -69 20 -69 18 0 41 12 41 21 0 5 -9 4 -20 -3
-17 -11 -22 -10 -30 2 -5 8 -10 20 -10 25 0 6 5 17 10 25 8 13 12 13 32 1 21
-13 22 -13 9 2 -18 23 -38 21 -52 -4z"/>
<path d="M7440 4465 c-12 -31 -4 -52 23 -61 35 -11 63 46 35 74 -20 20 -48 14
-58 -13z m54 -8 c8 -12 7 -21 -6 -33 -20 -20 -38 -11 -38 20 0 39 23 46 44 13z"/>
<path d="M7530 4445 c0 -27 2 -46 4 -44 8 8 10 78 3 85 -4 4 -7 -14 -7 -41z"/>
<path d="M7567 4483 c6 -4 13 -26 16 -48 4 -40 4 -40 3 4 -1 30 -6 46 -16 48
-10 3 -11 2 -3 -4z"/>
<path d="M7683 4483 c-7 -2 -13 -10 -13 -16 0 -8 4 -7 12 1 16 16 38 15 38 -2
0 -8 -10 -16 -22 -18 -36 -5 -31 -43 5 -44 27 -1 28 1 25 40 -3 40 -16 52 -45
39z m35 -55 c-3 -7 -11 -13 -18 -13 -7 0 -15 6 -17 13 -3 7 4 12 17 12 13 0
20 -5 18 -12z"/>
<path d="M7761 4469 c-9 -25 -4 -56 10 -65 13 -8 49 5 49 18 0 7 -5 6 -15 -2
-19 -16 -35 -4 -35 25 0 30 16 41 37 23 14 -11 16 -11 11 2 -8 25 -47 24 -57
-1z"/>
<path d="M7900 4476 c-15 -19 -9 -56 12 -69 34 -22 66 41 36 71 -16 16 -33 15
-48 -2z m45 -31 c0 -23 -4 -30 -20 -30 -21 0 -31 25 -21 51 11 28 41 12 41
-21z"/>
<path d="M8030 4476 c-25 -31 13 -97 40 -70 8 8 4 10 -12 10 -18 -1 -24 5 -26
27 -4 32 20 46 46 26 15 -13 16 -12 3 4 -16 21 -35 22 -51 3z"/>
<path d="M8124 4482 c-30 -20 -19 -82 15 -82 29 0 46 36 32 66 -11 24 -27 30
-47 16z m41 -23 c5 -14 1 -27 -10 -38 -15 -15 -17 -15 -30 3 -10 13 -11 24 -4
37 13 25 36 24 44 -2z"/>
<path d="M8201 4441 l2 -46 6 40 c4 26 11 40 21 40 10 0 17 -14 21 -40 l7 -40
-2 45 c-1 42 -3 45 -28 46 -27 1 -28 -1 -27 -45z"/>
<path d="M8343 4445 c0 -27 2 -38 4 -22 2 15 2 37 0 50 -2 12 -4 0 -4 -28z"/>
<path d="M8384 4476 c-3 -8 -4 -27 -2 -43 2 -22 8 -28 26 -27 12 0 21 -4 19
-10 -2 -6 -14 -11 -26 -10 -13 0 -18 -3 -12 -9 5 -5 17 -7 27 -5 15 3 20 14
22 58 3 53 2 56 -23 58 -14 1 -28 -4 -31 -12z m41 -32 c0 -19 -5 -29 -15 -29
-16 0 -25 28 -16 51 10 25 31 10 31 -22z"/>
<path d="M8471 4468 c-12 -33 2 -63 30 -63 30 0 49 45 29 69 -18 23 -49 20
-59 -6z m53 -11 c8 -12 7 -21 -6 -33 -20 -20 -38 -11 -38 20 0 39 23 46 44 13z"/>
<path d="M6532 4425 c0 -16 2 -22 5 -12 2 9 2 23 0 30 -3 6 -5 -1 -5 -18z"/>
<path d="M4462 4058 l1 -63 6 50 6 49 32 -49 33 -50 -1 55 c-1 48 -2 50 -8 20
l-6 -35 -25 42 c-14 24 -28 43 -32 43 -5 0 -7 -28 -6 -62z"/>
<path d="M4800 4061 c0 -34 4 -60 9 -57 8 6 5 105 -4 115 -3 2 -5 -24 -5 -58z"/>
<path d="M5090 4106 c0 -10 -6 -13 -17 -10 -14 5 -15 4 -4 -4 8 -6 10 -15 5
-23 -6 -12 -5 -12 8 -1 9 7 18 9 20 5 3 -4 3 -3 2 4 -2 6 1 13 6 15 4 2 2 9
-6 16 -12 10 -14 10 -14 -2z"/>
<path d="M4580 4076 c-15 -19 -9 -56 12 -69 34 -22 66 41 36 71 -16 16 -33 15
-48 -2z m45 -31 c0 -23 -4 -30 -20 -30 -21 0 -31 25 -21 51 11 28 41 12 41
-21z"/>
<path d="M4705 4073 c8 -8 16 -29 16 -46 2 -29 2 -29 8 8 4 26 11 40 21 40 10
0 17 -14 21 -40 l7 -40 -2 45 -1 45 -42 2 c-38 1 -41 -1 -28 -14z"/>
<path d="M4843 4079 c9 -5 17 -21 17 -34 0 -13 -8 -29 -17 -34 -20 -12 -13
-14 11 -5 28 11 17 84 -13 84 -14 -1 -14 -2 2 -11z"/>
<path d="M4893 4041 c0 -37 0 -39 4 -11 2 19 11 40 20 47 13 10 13 12 -4 10
-16 -1 -20 -9 -20 -46z"/>
<path d="M4949 4069 c-8 -16 -8 -28 0 -45 10 -24 44 -33 55 -15 4 5 -2 7 -12
4 -10 -2 -24 3 -31 11 -12 14 -9 16 18 16 32 0 41 16 19 38 -18 18 -36 15 -49
-9z m49 -7 c2 -7 -6 -12 -17 -12 -21 0 -27 11 -14 24 9 9 26 2 31 -12z"/>
<path d="M4660 4040 c0 -22 2 -40 4 -40 2 0 6 18 8 40 2 22 0 40 -4 40 -5 0
-8 -18 -8 -40z"/>
<path d="M4625 3709 c-11 -16 -1 -19 13 -3 7 8 8 14 3 14 -5 0 -13 -5 -16 -11z"/>
<path d="M5190 3690 c0 -5 5 -10 11 -10 5 0 7 5 4 10 -3 6 -8 10 -11 10 -2 0
-4 -4 -4 -10z"/>
<path d="M5466 3681 c-4 -5 3 -7 14 -4 23 6 26 13 6 13 -8 0 -17 -4 -20 -9z"/>
<path d="M5580 3680 c8 -5 20 -10 25 -10 6 0 3 5 -5 10 -8 5 -19 10 -25 10 -5
0 -3 -5 5 -10z"/>
<path d="M4621 3664 c0 -11 3 -14 6 -6 3 7 2 16 -1 19 -3 4 -6 -2 -5 -13z"/>
<path d="M4972 3655 c0 -16 2 -22 5 -12 2 9 2 23 0 30 -3 6 -5 -1 -5 -18z"/>
<path d="M5293 3645 c0 -22 2 -30 4 -17 2 12 2 30 0 40 -3 9 -5 -1 -4 -23z"/>
<path d="M4648 3663 c6 -2 18 -2 25 0 6 3 1 5 -13 5 -14 0 -19 -2 -12 -5z"/>
<path d="M5741 3654 c0 -11 3 -14 6 -6 3 7 2 16 -1 19 -3 4 -6 -2 -5 -13z"/>
<path d="M5450 3641 c0 -11 4 -22 9 -25 4 -3 6 6 3 19 -5 30 -12 33 -12 6z"/>
<path d="M5652 3630 c0 -19 2 -27 5 -17 2 9 2 25 0 35 -3 9 -5 1 -5 -18z"/>
<path d="M5850 3650 l-35 -7 38 -2 c20 0 37 4 37 9 0 6 -1 9 -2 9 -2 -1 -19
-5 -38 -9z"/>
<path d="M4791 3639 c-1 -19 26 -45 36 -35 3 3 1 6 -6 6 -6 0 -16 10 -21 23
-6 15 -9 17 -9 6z"/>
<path d="M5088 3643 c6 -2 18 -2 25 0 6 3 1 5 -13 5 -14 0 -19 -2 -12 -5z"/>
<path d="M5190 3631 c0 -11 4 -22 9 -25 4 -3 6 6 3 19 -5 30 -12 33 -12 6z"/>
<path d="M5010 3610 c-9 -6 -10 -10 -3 -10 6 0 15 5 18 10 8 12 4 12 -15 0z"/>
<path d="M5247 3609 c7 -7 15 -10 18 -7 3 3 -2 9 -12 12 -14 6 -15 5 -6 -5z"/>
<path d="M4633 3603 c9 -2 25 -2 35 0 9 3 1 5 -18 5 -19 0 -27 -2 -17 -5z"/>
<path d="M4460 3000 l0 -60 38 2 c36 1 36 1 5 5 -27 4 -33 9 -33 28 0 18 6 25
28 28 l27 4 -27 2 c-21 1 -28 6 -28 20 0 15 8 21 33 24 31 4 31 4 -5 5 l-38 2
0 -60z"/>
<path d="M4823 3000 c0 -36 2 -50 4 -32 2 17 2 47 0 65 -2 17 -4 3 -4 -33z"/>
<path d="M4902 3043 c-9 -9 -10 -13 -1 -13 8 0 8 -5 -2 -17 -11 -15 -11 -16 1
-6 11 10 17 10 29 0 14 -10 14 -10 3 5 -7 9 -9 18 -3 20 5 1 4 8 -3 14 -8 8
-15 7 -24 -3z"/>
<path d="M4551 2981 l2 -46 6 40 c4 26 11 40 21 40 10 0 17 -14 21 -40 l5 -40
5 40 c3 27 9 41 21 43 13 3 18 -6 21 -40 l4 -43 -1 45 -1 45 -52 1 -53 1 1
-46z"/>
<path d="M4697 3024 c-4 -4 -7 -12 -7 -18 0 -6 4 -5 9 3 9 15 41 8 41 -8 0 -5
-10 -11 -22 -13 -36 -5 -31 -43 5 -44 27 -1 28 1 25 40 -2 32 -7 42 -23 44
-12 2 -24 0 -28 -4z m41 -56 c-7 -19 -38 -22 -38 -4 0 10 9 16 21 16 12 0 19
-5 17 -12z"/>
<path d="M4783 2985 c0 -27 2 -38 4 -22 2 15 2 37 0 50 -2 12 -4 0 -4 -28z"/>
<path d="M4643 2653 c9 -2 23 -2 30 0 6 3 -1 5 -18 5 -16 0 -22 -2 -12 -5z"/>
<path d="M5383 2653 c9 -2 25 -2 35 0 9 3 1 5 -18 5 -19 0 -27 -2 -17 -5z"/>
<path d="M5188 2638 c-3 -7 -2 -24 2 -38 l6 -25 6 27 c6 29 -6 60 -14 36z"/>
<path d="M5080 2626 c0 -2 7 -7 16 -10 8 -3 12 -2 9 4 -6 10 -25 14 -25 6z"/>
<path d="M5481 2627 c2 -1 13 -9 24 -17 19 -14 19 -14 6 3 -7 9 -18 17 -24 17
-6 0 -8 -1 -6 -3z"/>
<path d="M5530 2626 c0 -2 7 -7 16 -10 8 -3 12 -2 9 4 -6 10 -25 14 -25 6z"/>
<path d="M5605 2620 c-3 -6 1 -7 9 -4 18 7 21 14 7 14 -6 0 -13 -4 -16 -10z"/>
<path d="M5383 2603 c9 -2 23 -2 30 0 6 3 -1 5 -18 5 -16 0 -22 -2 -12 -5z"/>
<path d="M4971 2584 c0 -11 3 -14 6 -6 3 7 2 16 -1 19 -3 4 -6 -2 -5 -13z"/>
<path d="M5095 2590 c-19 -8 -19 -9 3 -9 12 -1 22 4 22 9 0 6 -1 10 -2 9 -2 0
-12 -4 -23 -9z"/>
<path d="M5292 2570 c0 -14 2 -19 5 -12 2 6 2 18 0 25 -3 6 -5 1 -5 -13z"/>
<path d="M5628 2583 c7 -3 16 -2 19 1 4 3 -2 6 -13 5 -11 0 -14 -3 -6 -6z"/>
<path d="M5190 2561 c0 -6 4 -13 10 -16 6 -3 7 1 4 9 -7 18 -14 21 -14 7z"/>
<path d="M4718 2548 c5 -5 16 -8 23 -6 8 3 3 7 -10 11 -17 4 -21 3 -13 -5z"/>
<path d="M4970 2549 c0 -5 5 -7 10 -4 6 3 10 8 10 11 0 2 -4 4 -10 4 -5 0 -10
-5 -10 -11z"/>
<path d="M5010 2550 c-9 -6 -10 -10 -3 -10 6 0 15 5 18 10 8 12 4 12 -15 0z"/>
<path d="M4633 2543 c9 -2 25 -2 35 0 9 3 1 5 -18 5 -19 0 -27 -2 -17 -5z"/>
<path d="M5383 2543 c9 -2 23 -2 30 0 6 3 -1 5 -18 5 -16 0 -22 -2 -12 -5z"/>
<path d="M4467 1993 c19 -4 23 -12 26 -61 l3 -57 2 57 c2 50 5 57 25 61 12 2
0 4 -28 4 -27 0 -40 -2 -28 -4z"/>
<path d="M4633 1940 c0 -36 2 -50 4 -32 2 17 2 47 0 65 -2 17 -4 3 -4 -33z"/>
<path d="M4762 1983 c-4 -10 -5 -38 -1 -63 l6 -45 1 42 c1 23 8 44 15 46 9 4
8 6 -2 6 -11 1 -11 4 -1 16 8 10 9 15 2 15 -6 0 -15 -8 -20 -17z"/>
<path d="M4550 1944 c-7 -17 -7 -32 0 -45 11 -20 45 -26 54 -10 4 5 -2 7 -12
4 -10 -2 -24 3 -31 11 -12 14 -9 16 18 16 32 0 41 16 19 38 -19 19 -38 14 -48
-14z m48 -2 c2 -7 -6 -12 -17 -12 -21 0 -27 11 -14 24 9 9 26 2 31 -12z"/>
<path d="M4680 1956 c-25 -31 13 -97 40 -70 8 8 4 10 -11 10 -12 -1 -24 5 -26
12 -3 8 6 12 26 12 34 0 36 2 21 31 -13 23 -33 25 -50 5z m44 -11 c4 -11 -1
-15 -19 -15 -24 0 -32 10 -18 23 11 12 31 8 37 -8z"/>
<path d="M4820 1956 c-15 -19 -9 -56 12 -69 34 -22 66 41 36 71 -16 16 -33 15
-48 -2z m45 -31 c0 -23 -4 -30 -20 -30 -21 0 -31 25 -21 51 11 28 41 12 41
-21z"/>
<path d="M4900 1925 c0 -27 2 -46 4 -44 8 8 10 78 3 85 -4 4 -7 -14 -7 -41z"/>
<path d="M4937 1963 c6 -4 13 -26 16 -48 4 -40 4 -40 3 4 -1 30 -6 46 -16 48
-10 3 -11 2 -3 -4z"/>
<path d="M5004 1962 c-21 -13 -25 -49 -9 -66 22 -22 42 -20 56 5 21 39 -13 84
-47 61z m40 -25 c8 -12 7 -21 -6 -33 -20 -20 -38 -11 -38 20 0 39 23 46 44 13z"/>
<path d="M4633 1593 c9 -2 25 -2 35 0 9 3 1 5 -18 5 -19 0 -27 -2 -17 -5z"/>
<path d="M5189 1579 c-2 -32 3 -84 9 -91 4 -4 6 16 5 43 -1 46 -12 82 -14 48z"/>
<path d="M5367 1576 c-3 -8 -2 -18 3 -21 13 -8 20 9 11 24 -6 10 -10 9 -14 -3z"/>
<path d="M5627 1572 c-3 -4 -1 -16 4 -27 6 -16 8 -16 8 -3 1 9 6 18 13 20 8 3
6 7 -5 11 -9 3 -18 3 -20 -1z"/>
<path d="M4620 1558 c0 -14 8 -18 33 -17 27 2 28 2 7 6 -14 3 -28 10 -32 17
-5 7 -8 5 -8 -6z"/>
<path d="M4972 1535 c0 -16 2 -22 5 -12 2 9 2 23 0 30 -3 6 -5 -1 -5 -18z"/>
<path d="M4791 1534 c0 -11 3 -14 6 -6 3 7 2 16 -1 19 -3 4 -6 -2 -5 -13z"/>
<path d="M5292 1515 c0 -16 2 -22 5 -12 2 9 2 23 0 30 -3 6 -5 -1 -5 -18z"/>
<path d="M5445 1530 l-30 -8 33 -1 c17 0 32 4 32 9 0 6 -1 9 -2 9 -2 -1 -16
-5 -33 -9z"/>
<path d="M4621 1514 c0 -11 3 -14 6 -6 3 7 2 16 -1 19 -3 4 -6 -2 -5 -13z"/>
<path d="M5068 1523 c7 -3 16 -2 19 1 4 3 -2 6 -13 5 -11 0 -14 -3 -6 -6z"/>
<path d="M5548 1523 c6 -2 18 -2 25 0 6 3 1 5 -13 5 -14 0 -19 -2 -12 -5z"/>
<path d="M5631 1504 c0 -11 3 -14 6 -6 3 7 2 16 -1 19 -3 4 -6 -2 -5 -13z"/>
<path d="M5370 1501 c0 -6 4 -13 10 -16 6 -3 7 1 4 9 -7 18 -14 21 -14 7z"/>
<path d="M4970 1489 c0 -5 5 -7 10 -4 6 3 10 8 10 11 0 2 -4 4 -10 4 -5 0 -10
-5 -10 -11z"/>
<path d="M5010 1490 c-9 -6 -10 -10 -3 -10 6 0 15 5 18 10 8 12 4 12 -15 0z"/>
<path d="M5247 1489 c7 -7 15 -10 18 -7 3 3 -2 9 -12 12 -14 6 -15 5 -6 -5z"/>
<path d="M5697 1489 c7 -7 15 -10 18 -7 3 3 -2 9 -12 12 -14 6 -15 5 -6 -5z"/>
<path d="M4633 1483 c9 -2 25 -2 35 0 9 3 1 5 -18 5 -19 0 -27 -2 -17 -5z"/>
<path d="M4462 878 l1 -63 6 50 6 50 19 -48 c20 -53 27 -52 47 8 l14 40 6 -50
6 -50 1 63 c2 71 -9 80 -28 21 -8 -22 -17 -42 -21 -45 -4 -2 -15 16 -25 41 -9
25 -21 45 -25 45 -5 0 -8 -28 -7 -62z"/>
<path d="M5112 923 c-9 -9 -10 -13 -1 -13 8 0 8 -5 -2 -17 -11 -15 -11 -16 1
-6 11 10 17 10 29 0 14 -10 14 -10 3 5 -7 9 -9 18 -3 20 5 1 4 8 -3 14 -8 8
-15 7 -24 -3z"/>
<path d="M4613 902 c-11 -7 -16 -25 -14 -54 1 -19 39 -34 52 -21 6 6 1 9 -12
9 -12 -1 -24 5 -26 12 -3 7 5 12 22 12 22 0 26 4 23 22 -3 24 -25 33 -45 20z
m35 -20 c2 -7 -6 -12 -17 -12 -21 0 -27 11 -14 24 9 9 26 2 31 -12z"/>
<path d="M4681 865 l1 -50 8 40 c5 22 4 44 -1 50 -5 5 -9 -11 -8 -40z"/>
<path d="M4725 897 c12 -10 16 -22 13 -41 -3 -14 -1 -29 3 -32 10 -6 12 46 3
70 -3 9 -13 16 -22 16 -13 0 -13 -2 3 -13z"/>
<path d="M4773 893 c-4 -9 -2 -18 4 -20 5 -2 19 -10 29 -18 25 -18 9 -33 -18
-16 -17 10 -19 10 -16 -1 3 -7 15 -13 29 -13 34 0 38 32 4 45 -30 11 -24 34 7
24 14 -4 18 -2 14 5 -11 17 -46 13 -53 -6z"/>
<path d="M4860 893 c-12 -15 -12 -16 0 -5 19 16 40 15 40 -2 0 -8 -12 -17 -26
-20 -37 -10 -28 -41 12 -43 30 -1 30 -1 25 40 -7 46 -29 59 -51 30z m40 -42
c0 -14 -18 -23 -30 -16 -6 4 -8 11 -5 16 8 12 35 12 35 0z"/>
<path d="M4940 853 c-3 -34 -1 -58 3 -54 5 4 7 32 5 62 l-3 54 -5 -62z"/>
<path d="M4987 904 c-4 -4 -7 -22 -7 -40 0 -24 5 -34 21 -39 12 -4 25 -3 30 2
6 6 1 9 -12 9 -12 -1 -24 5 -26 12 -3 7 5 12 22 12 22 0 26 4 23 23 -3 22 -36
36 -51 21z m41 -22 c2 -7 -6 -12 -17 -12 -21 0 -27 11 -14 24 9 9 26 2 31 -12z"/>
<path d="M4628 533 c7 -3 16 -2 19 1 4 3 -2 6 -13 5 -11 0 -14 -3 -6 -6z"/>
<path d="M4624 470 c1 -35 5 -45 19 -46 11 -1 12 0 3 3 -9 2 -16 21 -19 46
l-4 42 1 -45z"/>
<path d="M4735 500 c-3 -6 1 -7 9 -4 18 7 21 14 7 14 -6 0 -13 -4 -16 -10z"/>
<path d="M4855 500 c-3 -6 1 -7 9 -4 18 7 21 14 7 14 -6 0 -13 -4 -16 -10z"/>
<path d="M4986 501 c-3 -5 3 -7 14 -4 24 6 29 -23 5 -30 -11 -4 -10 -4 2 -3
23 2 24 40 1 44 -9 2 -19 -1 -22 -7z"/>
<path d="M5075 500 c-3 -6 1 -7 9 -4 18 7 21 14 7 14 -6 0 -13 -4 -16 -10z"/>
<path d="M5152 480 c0 -19 2 -27 5 -17 2 9 2 25 0 35 -3 9 -5 1 -5 -18z"/>
<path d="M5243 470 c0 -25 2 -35 4 -22 2 12 2 32 0 45 -2 12 -4 2 -4 -23z"/>
<path d="M5318 503 c6 -2 18 -2 25 0 6 3 1 5 -13 5 -14 0 -19 -2 -12 -5z"/>
<path d="M5589 493 c-13 -16 -12 -17 4 -4 16 13 21 21 13 21 -2 0 -10 -8 -17
-17z"/>
<path d="M5700 506 c0 -2 7 -7 16 -10 8 -3 12 -2 9 4 -6 10 -25 14 -25 6z"/>
<path d="M5990 499 c0 -5 5 -7 10 -4 6 3 10 8 10 11 0 2 -4 4 -10 4 -5 0 -10
-5 -10 -11z"/>
<path d="M6073 499 c9 -5 17 -14 17 -19 0 -5 -8 -11 -17 -13 -14 -4 -12 -5 5
-6 12 0 22 5 22 12 0 16 -20 37 -34 37 -6 0 -3 -5 7 -11z"/>
<path d="M6270 491 c0 -6 4 -13 10 -16 6 -3 7 1 4 9 -7 18 -14 21 -14 7z"/>
<path d="M4813 455 c0 -22 2 -30 4 -17 2 12 2 30 0 40 -3 9 -5 -1 -4 -23z"/>
<path d="M4720 465 c0 -7 14 -9 35 -7 19 2 35 5 35 7 0 2 -16 5 -35 7 -21 2
-35 0 -35 -7z"/>
<path d="M4880 470 c-23 -7 -23 -8 -3 -9 12 -1 25 4 28 9 3 6 5 10 3 9 -2 -1
-14 -5 -28 -9z"/>
<path d="M5810 470 c0 -6 7 -10 15 -10 8 0 15 2 15 4 0 2 -7 6 -15 10 -8 3
-15 1 -15 -4z"/>
<path d="M5583 456 c3 -26 33 -44 48 -29 9 9 7 11 -9 6 -16 -4 -24 1 -32 18
-7 17 -9 19 -7 5z"/>
<path d="M5858 463 c7 -3 16 -2 19 1 4 3 -2 6 -13 5 -11 0 -14 -3 -6 -6z"/>
<path d="M5060 451 c0 -10 29 -36 34 -30 1 2 -6 12 -16 22 -10 9 -18 13 -18 8z"/>
<path d="M6085 441 c-3 -5 -2 -12 3 -15 5 -3 9 1 9 9 0 17 -3 19 -12 6z"/>
</g>
</svg>
